<?xml version="1.0" encoding="UTF-8"?>
<!DOCTYPE svg PUBLIC "-//W3C//DTD SVG 1.1//EN" "http://www.w3.org/Graphics/SVG/1.1/DTD/svg11.dtd">
<!-- Creator: CorelDRAW 2021 (64-Bit) -->
<svg xmlns="http://www.w3.org/2000/svg" xml:space="preserve" width="420mm" height="297mm" version="1.1" style="shape-rendering:geometricPrecision; text-rendering:geometricPrecision; image-rendering:optimizeQuality; fill-rule:evenodd; clip-rule:evenodd"
viewBox="0 0 42000 29700"
 xmlns:xlink="http://www.w3.org/1999/xlink"
 xmlns:xodm="http://www.corel.com/coreldraw/odm/2003">
 <defs>
  <style type="text/css">
   <![CDATA[
    .fil1 {fill:#010101}
    .fil0 {fill:#FDFDFD}
   ]]>
  </style>
   <clipPath id="id0">
    <rect x="8521.41" y="2325.88" width="22406.07" height="22406.07"/>
   </clipPath>
 </defs>
 <g id="Layer_x0020_1">
  <metadata id="CorelCorpID_0Corel-Layer"/>
  <g style="clip-path:url(#id0)">
   <image x="8521.41" y="2325.88" width="22406.07" height="22406.07" xlink:href="barcode-2fa_Images\barcode-2fa_ImgID1.png"/>
  </g>
  <g id="_3210440650528">
   <polygon class="fil0" points="8521.41,24731.95 30927.48,24731.95 30927.48,2325.88 8521.41,2325.88 "/>
   <path class="fil1" d="M17305.92 18543.67l576.24 1.04c265.83,185.6 156.78,296.17 149.25,712.96l627.54 9.51 3.3 701.73 725.07 12.56 -16.07 612.75 619.95 18.26 16.32 705.59 1316.27 -2.37c0,-1436.7 -324.51,-204.51 -627.96,-865.79l1.41 -1167.09 650.18 -20.01 3.3 706.86 2008.52 3.08 63.37 621.16 3372.19 0.39 15.13 -608.57 725.46 -14.88 -30.4 -616.22 636.94 -96.96 -1.89 -713.61 1421.23 2.85 9 -1331.63 -680.18 -0.93 -43.73 -647.5 -695.6 10.93c3.62,776.41 1.84,644.36 -618.93,637.5l-11.65 711.91 -716.6 -7.36 -18.89 -1343.86c-996.53,13.47 -404.96,-52.31 -637.16,627.91l-2022.86 10.33 -32.43 -642.08 -1330.93 9.09 10.22 -721.93 -1420.89 9.48 -0.76 597.82c206.09,119.63 468.87,102.1 711.99,102.35l-8.1 1363.65 -703.13 1.75c-1.05,583.47 159.43,625.93 -580.68,614.69l-199.07 -614.04 -1924.65 -10.51c-2.34,-78.1 -3.72,-380.76 -5.87,-388.56 -119.29,-434.57 220.86,-235.62 -265.68,-311.75 -505.09,-79.06 -322.11,198.98 -352.34,677.2l-713.78 54.56 -2.65 587.74z"/>
   <polygon class="fil1" points="24751.22,8410.25 29570.27,8410.37 29568.44,3683.09 29433.73,3684.05 24750.6,3684.56 "/>
   <polygon class="fil1" points="9879.58,18657.43 9880.37,23374.74 10015.16,23373.78 14607.34,23372.99 14606.57,23238.2 14605.76,18555.07 9878.62,18556 "/>
   <polygon class="fil1" points="9879.58,3819.63 9880.37,8410.25 14496.37,8410.25 14605.78,8410.25 14605.78,3683.09 14496.37,3684.05 9878.62,3684.84 "/>
   <path class="fil1" d="M22070.74 11107.03l-24.96 -715.28 4151.54 -0.08 -5.05 597.9c-24.76,17.22 -66,3.84 -82.37,39.89l-623.67 95.46 -31.65 1341.6 -1342.81 -12.9 -4.77 -608.46 645.78 -39.29 -27.05 -681.26 -1303.43 5.48 -17.47 1336.49 -1334.68 -0.23c-3.96,-54.25 -22.59,-348.76 -31.48,-375.29 -93.1,-278.64 85.14,-241.94 -695.43,-266.56 -37.06,-374.67 126.49,-963.42 -442.81,-670.98 -89.85,46.15 -166.01,-107.8 -191.67,516.38 -6.55,158.86 16.48,434.37 16.48,614.24l601.63 199.15 10.02 707.31 628.02 -28.9c58.24,104.86 48.86,35.62 80.85,231.78 22.95,140.74 16.57,252.27 16.9,394.23l713.22 11.4 -16.01 -632.47 2706.29 -0.43 -21.82 629.55 735.42 -11.49c33.62,751.74 -104.47,716.62 615.04,716.62l-5.34 -2034.51c-157.17,-0.37 -776.98,183.23 -624.63,-481.01 139.22,-287.53 183.82,-172.64 625,-173.2l6.89 -2041.41 1345.18 -20.77 -0.37 -691.82 -3390.93 0 -9.31 716.49 -1959.51 2.03 -19.9 -2072.96 -697.24 -0.39 -13.61 1357.49 -701.15 0.82 -7.96 699.63 -632.2 6.69 -15.55 -1339.51c-956.15,13.16 -657.58,-124.85 -701.39,588.81l-616.44 53.83c-4.89,837.53 -11.07,681.37 630.08,677.08 -3.25,754.57 -242.03,641.91 1349.78,648.09l-6.86 702.68 721.4 8.08z"/>
   <path class="fil1" d="M11837.11 13191.79l16.91 618.19 -1376.54 0.88 17.7 -624.38 -616.53 -10.33 1.58 1326.72 1309.87 -3.92 17.67 661.58 -1329.15 -7.2 1.61 2755.4c772.77,-10.07 609.05,268.42 599.82,-2055.34l2054.16 4.29 6.69 -702.54 -699.98 -9.15 -6.69 -631.8 670.45 -11.24 75.54 627.85 2025.56 -1.63 -12.61 -555.11 -1424.37 -46.63 7.06 -742.94 1431.48 3.7 -1.73 -610.57 -707.14 2.25 0 -742.96c703.25,4.94 708.78,138.66 705.06,-595.92 -738.82,0 -700.71,158.36 -713.1,-736.31l-1312.3 12.99 -10.08 2040.53 -730.94 33.59z"/>
   <path class="fil1" d="M16579.15 8415.96l715.36 -6.58 -1.41 -699.35 589.06 -8.58c268.17,171.23 155.71,292.83 151.19,708.8l626.61 -3.55 -26.53 -603.77 -1.27 -99.99 744.83 0 -15.25 718.72 618.34 -15.47 2 -696.16c867.45,-12.65 743.16,-83.22 743.16,700.22 735.57,0 600.84,-5.19 595.93,-707.31l743.47 0.4 -18.04 -730.07 1370.03 0.88 -3.19 1381.06 690.12 67.01 -1.98 -2050.4 -688.68 -6.89 -33.59 -712.06c-716.43,9.52 -518.69,-57.72 -641.57,722.47l-649.13 -0.9 -59.51 -716.65 -707.93 -0.43c4.06,-630.7 152.2,-642.36 -599.09,-642.36l3.67 1329.18c623.93,1.13 628.39,-152.54 618.71,636.18l-574.28 14.82 -84.96 -620.71c-527.47,-0.71 -1070.38,5.93 -1608.58,-2.03 -1116.9,-16.57 -921.57,9.26 -1028.58,231.83 -24.75,51.49 -2.2,208.19 -66.31,373.69l-1393.76 20.35 -8.84 1417.65z"/>
   <polygon class="fil0" points="10481.01,22687.11 13899.26,22685.33 13899.26,19254.51 10481.2,19256.71 "/>
   <polygon class="fil0" points="25452.64,7603.75 25450.04,7703.73 28898.5,7703.73 28881.65,7603.75 28880.97,4284.52 28736.67,4285.08 25450.04,4285.7 "/>
   <polygon class="fil0" points="10480.61,4417.1 10481.03,7703.73 13849.07,7703.73 13899.26,4284.52 13799.28,4285.08 10480.05,4285.5 "/>
   <path class="fil1" d="M14617.19 15854.94l1970.8 0.31 0 713.69 728.14 -1.95c0.65,617.04 -155.7,622.63 691.57,622.63l-0.57 -1305.18 626.07 -50.95 3.33 -631.97 -1325.9 -56.32 -6.38 -636.94 705.39 -7.73 -2.68 -1320.54c-864.32,-4.12 -692.1,-5 -689.27,630.9l-706.55 -5.93c-43.84,891.72 -14.54,728.26 -641.09,721.59 3.7,731.56 232.17,624.78 -1345.52,636.29l-7.34 692.1z"/>
   <path class="fil1" d="M21336.89 13190.6l-638.91 -29.5 -1.73 -694.72 -2662.9 -0.62c5.57,747.9 -34.29,605.52 253.86,688.2 56.6,16.23 304.05,22.56 380.2,26.42l-7.31 1322.49c796.86,-3.7 687.92,97.3 709.12,-718.32l625.82 1.78c17.78,826.26 96,743.53 -621.1,743.38 -0.79,746.86 14.03,600.08 632.48,595.93l0.67 707.68c759.99,72.32 1467.07,168.83 1316.7,-462.12 -47.45,-199.24 325.84,102.27 -343.25,-219.7 -315.62,-151.87 -286.37,423.39 -281.49,-1340.22l630.3 -51.12 7.54 -569.56z"/>
   <path class="fil1" d="M28150.76 16577.78c-18.37,-523.46 66.57,-1706.03 -111.19,-2048.07 -1131.18,0 -47.36,354.63 -697.06,625.4l-3214.56 -1.22 2.68 1412.68 1322.57 2.03 -1.98 -713.26c1518.62,0 1368.62,-176.4 1368.62,711.23l1330.92 11.21z"/>
   <polygon class="fil1" points="16579.15,8415.96 15943.77,8436.51 15950.8,5628.97 16576.22,5626.28 16590.62,6346.1 17294.51,6344.91 17300.21,5006.17 16585.68,5015 16596.04,4301.99 15972.42,4307.64 15975.95,5003.23 15256.1,5017.63 15257.88,9034.86 16587.2,9034.04 "/>
   <polygon class="fil0" points="24099.89,19998.38 26193.91,19996.71 26192.92,19852.41 26192.41,17902.92 26047.94,17903.91 24100.42,17904.41 "/>
   <path class="fil0" d="M11210.14 10392.07l614.1 0.39 12.87 2799.33 730.94 -33.59 10.08 -2040.53 1312.3 -12.99 8.44 -712.61 -706.92 -0.4c0.06,-110.15 11.8,-288.24 -15.3,-389.8 -77.18,-289.31 63.6,-115.91 -174.03,-253.21l-1780.68 16.83 -11.8 626.58z"/>
   <path class="fil1" d="M27535.39 19970.85l-17.39 645.16 -699.35 8.64c0,768.34 -102.49,669.12 716.35,699.86l-14.57 633.29 637.22 -14.45 -28.71 728.03 727.33 -13.41 -2.71 -1323.22 -702.99 0.57 9.59 -741.7 1410.14 1.84 -3.9 -1334.66 -630.72 15.39 -61.2 721.93 -1339.09 -27.27z"/>
   <path class="fil1" d="M20004.58 3919.19c36.87,251.23 -121.3,398.41 862.93,373.57 376.37,-9.49 752.06,-6.41 1128.71,-6.41l76.72 727.24 691.53 0.62c-0.03,-112.29 -9.91,-291.09 4.49,-396.63l62.61 -253.91c5.56,-19.82 16.6,-53.47 29.72,-78l556.58 33.85 -4.21 1309.5 690.6 1.72 -2.68 -1947.65c-710.36,3.22 -1423.46,1.95 -2136.53,1.95 -332.13,0 -664.52,3.55 -996.56,-2.91 -75.34,-1.47 -469.44,-14.43 -510.57,-9.57 -733.87,86.18 -209.25,-9.12 -453.34,246.63z"/>
   <polygon class="fil1" points="11210.53,6607.92 11228.29,6982.98 13155.42,6969.89 13173.66,5038.18 12803.73,5010.35 11185.24,5015 "/>
   <polygon class="fil1" points="11206.1,21946.37 13177.5,21939.65 13163.81,20007.32 11249.46,19993.94 "/>
   <polygon class="fil1" points="26195.21,6950.83 28117.17,6978.69 28144.13,5015 26186.62,5024.71 "/>
   <path class="fil1" d="M15960.62 21932.23l-18.32 -486.46c28.31,-17.61 73.51,-59.81 89.88,-34.21 16.15,25.27 64.9,-24.64 86.86,-32.32 544.57,-190.31 468.16,156.58 468.16,-754.93l-630.39 -22.28 -7.54 -585.56 650.12 -35.4 -14.48 -626.55 307.13 -92.25c113.78,-13.97 285.41,-4.6 404.02,-4.6l9.86 -714 -1332.74 14.08 2.97 697.18c-46.1,2.49 -382.18,7.31 -390.37,9.01 -307.97,63.6 -198.08,-53.64 -327.76,190.14l-0.93 2491.53 703.53 -13.38z"/>
   <polygon class="fil1" points="17314.3,21921.64 18658.89,21954.9 18660.58,23374.74 19370.04,23368.33 19363.86,20624.28 18661.91,20622.87 18656.63,21320.24 18015.06,21327.07 18005.38,20623.12 17313.03,20637.49 "/>
   <path class="fil1" d="M24130.09 21744.48c121.78,257.9 -51.91,97.11 235.54,184.08 91.82,27.78 277.88,20.1 381.05,21.76l6.44 707.31 691.81 0.99c58.4,776.84 -101.88,714.63 722.64,716.04l-2.57 -1331.44c604.68,-388.5 624.83,430.62 624.83,-706.92l-2661.88 0 2.14 408.18z"/>
   <polygon class="fil1" points="13898.87,16566.18 13183.9,16560.08 13193.02,17908.73 15228.58,17909.83 15267.82,18551.83 15934.93,18544.85 15949.5,17218.44 13941.72,17218.92 "/>
   <path class="fil1" d="M11221.94 9765.49l1780.68 -16.83c237.63,137.3 96.85,-36.1 174.03,253.21 27.1,101.56 15.36,279.65 15.3,389.8l706.92 0.4 -0.48 -643.89c426.21,2.99 531.9,115.54 708.18,-152.77l-0.96 -534.87 -109.24 0.96 -3285.84 0.71 11.41 703.28z"/>
   <path class="fil1" d="M10495.18 13186.48l1341.93 5.31 -12.87 -2799.33 -614.1 -0.39 0.45 1294.56c-169.79,268.17 -291.4,155.71 -707.37,151.19l-8.04 1348.66z"/>
   <path class="fil1" d="M16596.04 4301.99l724.41 -17.45 -20.24 721.63 581.93 10.1c575.43,362.17 -483.04,616.87 756.09,613.51l-2.68 -1944.74 -2047.56 -0.51 8.05 617.46z"/>
   <path class="fil1" d="M22771.53 15859.29l612.52 4.57 7.2 -1344.17c266.08,-13.63 907.39,80.43 709.85,-542.65 -100.49,-317.01 -596.2,-145.04 -1325.22,-177.93l-4.35 2060.18z"/>
   <polygon class="fil1" points="28153.33,13799.11 28139.98,11837.82 26819.84,11841.49 26818.28,12439.54 27509.7,12453.17 27534.18,13678.27 27530.28,13787.71 "/>
   <path class="fil1" d="M13890.43 11104.68l727.15 -8.46c29.33,776.86 -148.96,714.7 612.81,717.61l-2.26 -1421.37 -1329.26 -0.39 -8.44 712.61z"/>
   <path class="fil1" d="M22062.3 21945.61l702.17 0.68 -2.34 -632c704.66,0.28 626.69,44.09 621.84,-691.17l-1321.31 -1.97 -0.36 1324.46z"/>
   <path class="fil1" d="M15956.67 12449.87l-700.54 19.16 5.93 705.48 1325.22 2.8 -0.08 -1339.49c-636.35,10.08 -586.41,-69.89 -630.53,612.05z"/>
   <polygon class="fil1" points="17306.68,11111.15 17313.59,11782.3 18637.8,11799.86 18635.69,10431.39 18033.61,10413.86 18039.11,11122.19 "/>
   <path class="fil1" d="M11210.14 10392.07l11.8 -626.58 -715.95 13.8c-69.56,-751.43 146.61,-717.42 -627.37,-718.24l1.3 1330.62 1330.22 0.4z"/>
   <polygon class="fil1" points="17306.68,11111.15 17305.52,9763.51 16588.02,9779.15 16587.99,11098.98 "/>
   <polygon class="fil1" points="22062.16,23374.74 23387.13,23373.22 23384.84,22684.48 22062.66,22682.59 "/>
   <polygon class="fil0" points="11837.11,13191.79 10495.18,13186.48 10477.48,13810.86 11854.02,13809.98 "/>
   <polygon class="fil0" points="22765.26,18554.28 22048.92,18540.54 22050.13,19270.63 22164.23,19269.67 22777.43,19269.78 22776.47,19155.32 "/>
   <polygon class="fil0" points="17300.21,5006.17 17320.45,4284.54 16596.04,4301.99 16585.68,5015 "/>
   <polygon class="fil0" points="18659.96,8406.7 19361.74,8421.66 19376.99,7702.94 18632.16,7702.94 18633.43,7802.93 "/>
   <polygon class="fil1" points="13898.87,16566.18 14605.78,16569.28 14617.19,15854.94 13899.29,15869.17 "/>
   <polygon class="fil1" points="27535.39,22659.58 27520.43,21957.8 26819.75,21949.19 26817.3,22660.77 "/>
   <polygon class="fil1" points="24751,19257.67 25452.41,19257.64 25453.23,18555.86 24750.6,18554.03 "/>
   <polygon class="fil1" points="28153.33,13799.11 28144.7,14501.77 28853.96,14502.47 28840.35,13801.94 "/>
   <polygon class="fil1" points="22070.74,11107.03 22060.77,11686.61 22064.64,11812.17 22662.12,11813.24 22764.47,11814.14 22750.78,11113.24 "/>
   <polygon class="fil1" points="25444.34,13795.76 24775.42,13808.01 24745.78,14502.73 24852.96,14501.88 25452.41,14501.99 "/>
   <polygon class="fil1" points="23412.36,22658.4 24101.1,22657.8 24094.64,21953.4 23421.43,21953.09 "/>
   <polygon class="fil1" points="28140.91,11811.01 28736.67,11812.84 28853.93,11814.14 28840.21,11113.24 28174.96,11124.56 "/>
   <polygon class="fil1" points="15256.55,23374.74 15949.5,23373.61 15945.57,22684.48 15258.02,22682.42 "/>
   <polygon class="fil1" points="28882.66,13133.98 29561.07,13178.21 29571.29,12463.25 28874.51,12490.15 "/>
   <polygon class="fil1" points="28882.3,15822.7 29561.07,15866.94 29571.03,15151.98 28876.37,15179.53 "/>
   <polygon class="fil0" points="19387.32,19981.47 20006.39,20000.66 20005,19254.51 19362.14,19257.05 "/>
   <polygon class="fil1" points="15960.62,21932.23 15975.02,22657.61 16587.2,22659.84 16587.2,21944.03 "/>
   <polygon class="fil0" points="27535.39,22659.58 28128.94,22671.38 28157.65,21943.35 27520.43,21957.8 "/>
   <polygon class="fil1" points="17305.52,9763.51 17958.52,9749.93 18001.65,9098.2 17357.12,9062.92 "/>
   <polygon class="fil1" points="19361.74,8421.66 18659.96,8406.7 18658.83,9034.86 19370.01,9029.35 "/>
   <polygon class="fil1" points="28128.94,22671.38 27535.39,22659.58 27529.04,23374.74 27641.25,23373.78 28141.93,23374.63 "/>
   <polygon class="fil1" points="11210.53,17908.73 11825.31,17906.96 11824.5,17218.44 11210.53,17216.44 "/>
   <polygon class="fil1" points="13183.9,16560.08 13171.65,15891.16 12704.11,15862.11 12569.29,15868.72 12569.29,16568.15 "/>
   <polygon class="fil1" points="16599.39,19981.07 16584.77,20594.24 17287.79,20594.3 17271.28,19990.36 "/>
   <polygon class="fil1" points="19368.12,11814 19983.24,11813.18 19968.34,11113.15 19397.93,11117.81 "/>
   <path class="fil1" d="M24128.62 23374.77l618.88 -6.41c-0.82,-34.58 -4.43,-434.85 -5.62,-439.37 -74.1,-287.11 22.3,-116.19 -187.69,-244.51l-424.27 0 -1.3 690.29z"/>
   <path class="fil1" d="M11851.4 16765.35l0 424.27 690.26 1.67 -5.79 -619.21c-33.08,0.79 -435.5,4.4 -440.05,5.58 -580.76,149.64 22.61,-8.6 -244.42,187.69z"/>
   <polygon class="fil1" points="15257.2,10391.67 15591.76,10391.67 15951.81,10362.76 15946.68,9824.06 15256.58,9766.33 "/>
   <polygon class="fil1" points="28878.15,10352.74 29569.93,10400.11 29569.31,10292.48 29569.57,9774.52 28876.37,9802.07 "/>
   <polygon class="fil0" points="22765.26,18554.28 23414.88,18533.59 23402.17,17928.86 22806.65,17901.68 "/>
   <polygon class="fil1" points="19373.29,17191.6 19475.5,17190.61 19983.24,17190.86 19983.24,16566.57 19373.15,16574.28 "/>
   <polygon class="fil1" points="19373.63,5629.78 19983.24,5629.84 19983.24,5015 19373.15,5015 "/>
  </g>
 </g>
</svg>
